<?xml version="1.0" encoding="UTF-8" standalone="no"?>
<!-- Created with Inkscape (http://www.inkscape.org/) -->

<svg
   width="500mm"
   height="500mm"
   viewBox="0 0 500 500"
   version="1.1"
   id="svg1"
   xmlns="http://www.w3.org/2000/svg"
   xmlns:svg="http://www.w3.org/2000/svg">
  <defs
     id="defs1" />
  <path
     style="fill:none;stroke:#000000;stroke-width:0.799999;stroke-linecap:round;stroke-linejoin:round;stroke-miterlimit:2;stroke-dasharray:none;stroke-opacity:1"
     d="m 26.02389,27.303753 c 0,38.964732 0,77.929467 5.332871,97.411837 5.332872,19.48236 15.998186,19.48236 21.330951,-0.0715 5.332764,-19.55386 5.332764,-58.660018 11.87442,-78.213487 6.541656,-19.553469 19.624442,-19.553469 26.165967,-0.639554 6.541525,18.913916 6.541525,56.740231 15.358541,75.653771 8.81701,18.91354 26.45033,18.91354 35.26717,1.77725 8.81684,-17.13629 8.81684,-51.407508 23.67777,-68.543457 14.86094,-17.13595 44.58161,-17.13595 71.51204,-13.90186 26.93043,3.23409 51.06904,9.702011 66.39376,7.297916 15.32472,-2.404095 21.83479,-13.679882 34.82075,-13.699778 12.98597,-0.01989 32.44689,11.215872 43.50443,21.785904 11.05755,10.570032 13.71123,20.473717 10.51607,29.947676 -3.19515,9.473959 -12.23884,18.517649 -23.69507,19.036059 -11.45624,0.51841 -25.3243,-7.488315 -38.93269,-13.280112 -13.60839,-5.791796 -26.95628,-9.368353 -38.5141,-9.848076 -11.55782,-0.479724 -21.32486,2.137346 -31.42433,0.434542 -10.09948,-1.702804 -20.53075,-7.725301 -30.02379,-3.328114 -9.49303,4.397187 -18.04729,19.213589 -17.77715,31.16929 0.27015,11.9557 9.3645,21.05005 23.52397,25.59732 14.15948,4.54726 33.38314,4.54726 57.21616,4.54726 23.83302,0 52.27385,0 82.77758,0 30.50373,0 63.06852,0 79.35123,5.74645 16.28271,5.74646 16.28271,17.2389 8.5406,27.45514 -7.7421,10.21625 -23.22568,19.15569 -44.12907,27.15211 -20.9034,7.99641 -47.22526,15.04933 -69.8629,13.10464 -22.63764,-1.9447 -41.58977,-12.88671 -57.59203,-22.12562 -16.00225,-9.23891 -29.05372,-16.77418 -41.47486,-18.96226 -12.42114,-2.18807 -24.21121,0.97107 -35.23707,7.68138 -11.02587,6.71031 -21.28688,16.97133 -39.31905,14.65322 -18.03217,-2.3181 -43.83425,-17.21494 -56.73555,-17.9186 -12.9013,-0.70365 -12.9013,12.78564 -4.81395,24.19965 8.08735,11.41401 24.26139,20.75209 20.85241,28.50162 -3.40898,7.74953 -26.40039,13.91006 -45.211791,4.31962 -18.811402,-9.59043 -33.441752,-34.93094 -44.022228,-44.3363 -10.580475,-9.40535 -17.110525,-2.8753 -16.787728,13.77996 0.322797,16.65527 7.498283,43.43455 22.184588,59.79828 14.686304,16.36374 36.882393,22.31116 56.996539,16.26905 20.11415,-6.04211 38.1452,-24.07315 50.85786,-19.29163 12.71266,4.78152 20.10628,32.37489 27.18404,33.55422 7.07776,1.17932 13.83925,-24.05489 27.48635,-26.40597 13.64711,-2.35108 34.17886,18.18068 39.17511,8.77947 4.99625,-9.4012 -5.543,-48.73421 4.32226,-53.26611 9.86527,-4.5319 40.13405,25.73689 64.46146,40.87158 24.3274,15.13469 42.71208,15.13469 53.86095,7.8335 11.14887,-7.30119 15.06141,-21.90299 28.63928,-17.58247 13.57787,4.32052 36.82007,27.5627 37.76629,42.04442 0.94622,14.48172 -20.40317,20.20227 -44.45008,19.47958 -24.04691,-0.72269 -50.78988,-7.88844 -59.22899,-2.92783 -8.43911,4.96061 1.42574,22.04702 21.63623,30.59041 20.2105,8.54338 50.76522,8.54338 63.59413,17.68226 12.8289,9.13888 7.93159,27.4159 -20.3494,21.64032 -28.28099,-5.77559 -79.94351,-35.60296 -109.84431,-46.44789 -29.9008,-10.84493 -38.03855,-2.70717 -34.12609,5.96986 3.91246,8.67704 19.87468,17.89283 27.85594,30.1201 7.98126,12.22728 7.98126,27.46527 14.01501,29.05068 6.03374,1.58541 18.10078,-10.48162 28.87422,-15.24521 10.77345,-4.76359 20.25273,-2.22363 24.99247,8.92965 4.73975,11.15328 4.73975,30.91903 18.80812,44.57172 14.06838,13.65269 42.20398,21.19161 70.34017,28.73068"
     id="path6" />
  <g
     id="layer1">
    <path
       style="fill:#55ff00;stroke:#ffff00;stroke-width:0.799999;stroke-linecap:round;stroke-linejoin:round;stroke-miterlimit:2;stroke-dasharray:none;stroke-opacity:1"
       d="M 5.5460751,103.66894 27.730376,101.96246"
       id="path7" />
    <path
       style="fill:#55ff00;stroke:#ffff00;stroke-width:0.799999;stroke-linecap:round;stroke-linejoin:round;stroke-miterlimit:2;stroke-dasharray:none;stroke-opacity:1"
       d="M 40.955632,73.37884 58.87372,90.443684"
       id="path8" />
    <path
       style="fill:#55ff00;stroke:#ffff00;stroke-width:0.799999;stroke-linecap:round;stroke-linejoin:round;stroke-miterlimit:2;stroke-dasharray:none;stroke-opacity:1"
       d="m 130.9454,88.532908 17.91809,17.064842"
       id="path8-8" />
    <path
       style="fill:#55ff00;stroke:#ffff00;stroke-width:0.799999;stroke-linecap:round;stroke-linejoin:round;stroke-miterlimit:2;stroke-dasharray:none;stroke-opacity:1"
       d="M 110.9215,40.529009 95.563138,63.13993"
       id="path9" />
    <path
       style="fill:#55ff00;stroke:#00ff00;stroke-width:0.799999;stroke-linecap:round;stroke-linejoin:round;stroke-miterlimit:2;stroke-dasharray:none;stroke-opacity:1"
       d="m 79.640011,129.71669 25.340009,-9.35167"
       id="path10" />
    <path
       style="fill:#00ffff;stroke:#55ff00;stroke-width:0.799999;stroke-linecap:round;stroke-linejoin:round;stroke-miterlimit:2;stroke-dasharray:none;stroke-opacity:1"
       d="m 146.00669,33.786672 20.21167,19.30667"
       id="path11" />
    <path
       style="fill:#00ffff;stroke:#55ff00;stroke-width:0.799999;stroke-linecap:round;stroke-linejoin:round;stroke-miterlimit:2;stroke-dasharray:none;stroke-opacity:1"
       d="m 198.79836,82.958346 12.67,-43.741673"
       id="path12" />
  </g>
</svg>
