<?xml version="1.0" encoding="UTF-8" standalone="no"?>
<!-- Created with Inkscape (http://www.inkscape.org/) -->

<svg
   width="500mm"
   height="500mm"
   viewBox="0 0 500 500"
   version="1.1"
   id="svg1"
   xmlns="http://www.w3.org/2000/svg"
   xmlns:svg="http://www.w3.org/2000/svg">
  <path
     style="fill:none;stroke-width:2;stroke:#000000;stroke-opacity:1;stroke-dasharray:none"
     d="m 40.262942,69.843877 c 100.657348,91.618733 -66.146261,71.076413 68.611338,184.059163 134.7576,112.98273 39.85209,-34.10025 39.85209,-34.10025 0,0 -96.959731,-46.83648 -21.36401,-63.27034 75.59573,-16.43385 112.5719,55.87511 112.5719,55.87511 l 32.86772,78.0608 c 0,0 30.81348,40.67379 57.51848,5.75186 26.705,-34.92195 21.77486,-103.53329 -17.25554,-129.82745 -39.03041,-26.29417 -83.81266,-17.6664 -124.0756,-27.11586 -40.26295,-9.44947 -112.982747,-91.618734 -44.78226,-85.456038 68.2005,6.162693 156.9433,-18.488086 195.56286,32.45686 38.61956,50.944948 99.83565,136.400978 67.78964,188.989318 -32.04602,52.58834 -6.16268,66.14625 -56.28595,73.54149 C 301.15036,356.20377 213.6401,391.53655 151.6023,365.24239 89.564503,338.94823 43.960557,230.07395 38.619557,268.28265 c -5.341004,38.20872 -26.705013,53.41004 -0.410848,59.16187 26.294167,5.75186 21.774856,49.30158 42.72802,62.44865 20.953161,13.14709 84.634351,40.67379 116.680361,39.03041 32.04601,-1.64338 150.7806,4.10847 176.25307,-13.55794 25.47247,-17.66639 66.96795,-80.93673 78.06082,-41.08463 11.09284,39.85209 26.705,96.95973 26.705,96.95973"
     id="path1" />
  <g
     id="layer1">
    <path
       style="fill:none;stroke:#000000;stroke-width:1.5"
       d="m 13.218306,189.84974 40.381199,-8.86062"
       id="path2" />
    <path
       style="fill:none;stroke:#000000;stroke-width:1.5"
       d="m 26.436613,111.99246 48.079774,14.81613"
       id="path3" />
    <path
       style="fill:none;stroke:#000000;stroke-width:1.5"
       d="M 56.359371,250.85731 78.002534,226.74479"
       id="path4" />
    <path
       style="fill:none;stroke:#000000;stroke-width:1.5"
       d="m 107.34427,121.57937 3.77666,39.65492"
       id="path5" />
    <path
       style="fill:none;stroke:#000000;stroke-width:1.5"
       d="m 186.07308,196.53152 -32.68262,30.50379"
       id="path6" />
  </g>
  <defs
     id="defs1">
    <linearGradient
       id="swatch1">
      <stop
         style="stop-color:#000000;stop-opacity:1;"
         offset="0"
         id="stop1" />
    </linearGradient>
  </defs>
</svg>
